<svg width="19" height="25" viewBox="0 0 19 25" fill="none" xmlns="http://www.w3.org/2000/svg">
<path d="M3.75 25V13.5625C2.6875 13.2708 1.79687 12.6875 1.07812 11.8125C0.359375 10.9375 1.49012e-07 9.91667 1.49012e-07 8.75V-5.96046e-07H2.5V8.75H3.75V-5.96046e-07H6.25V8.75H7.5V-5.96046e-07H10V8.75C10 9.91667 9.64063 10.9375 8.92188 11.8125C8.20312 12.6875 7.3125 13.2708 6.25 13.5625V25H3.75ZM16.25 25V15H12.5V6.25C12.5 4.52083 13.1094 3.04688 14.3281 1.82813C15.5469 0.609375 17.0208 -5.96046e-07 18.75 -5.96046e-07V25H16.25Z" fill="black"/>
</svg>
